<svg width="17" height="17" viewBox="0 0 17 17" fill="none" xmlns="http://www.w3.org/2000/svg">
<path d="M14.9717 7.8106C15.2877 8.22394 15.2877 8.78194 14.9717 9.1946C13.9763 10.4939 11.5883 13.1693 8.80038 13.1693C6.01238 13.1693 3.62438 10.4939 2.62905 9.1946C2.47531 8.99669 2.39185 8.75322 2.39185 8.5026C2.39185 8.25199 2.47531 8.00852 2.62905 7.8106C3.62438 6.51127 6.01238 3.83594 8.80038 3.83594C11.5883 3.83594 13.9763 6.51127 14.9717 7.8106Z" stroke="black" stroke-opacity="0.35" stroke-width="1.5" stroke-linecap="round" stroke-linejoin="round"/>
<path d="M8.80005 10.5C9.90462 10.5 10.8 9.60457 10.8 8.5C10.8 7.39543 9.90462 6.5 8.80005 6.5C7.69548 6.5 6.80005 7.39543 6.80005 8.5C6.80005 9.60457 7.69548 10.5 8.80005 10.5Z" stroke="black" stroke-opacity="0.35" stroke-width="1.5" stroke-linecap="round" stroke-linejoin="round"/>
</svg>
