<svg width="9" height="12" viewBox="0 0 9 12" fill="none" xmlns="http://www.w3.org/2000/svg">
<path d="M8.5441 6.54791L1.71543 11.2759C1.61537 11.3451 1.49826 11.3857 1.37681 11.3931C1.25535 11.4005 1.13418 11.3746 1.02642 11.3181C0.918674 11.2615 0.828434 11.1766 0.765514 11.0725C0.702584 10.9683 0.669354 10.8489 0.669434 10.7272V1.27258C0.669354 1.1509 0.702584 1.03151 0.765514 0.927373C0.828434 0.823223 0.918674 0.738283 1.02642 0.681763C1.13418 0.625243 1.25535 0.599283 1.37681 0.606713C1.49826 0.614143 1.61537 0.654673 1.71543 0.723913L8.5441 5.45191C8.6327 5.51327 8.705 5.59517 8.755 5.69061C8.805 5.78604 8.8311 5.89218 8.8311 5.99991C8.8311 6.10765 8.805 6.21378 8.755 6.30922C8.705 6.40465 8.6327 6.48656 8.5441 6.54791Z" fill="white"/>
</svg>
