<svg width="25" height="26" viewBox="0 0 25 26" fill="none" xmlns="http://www.w3.org/2000/svg">
<path fill-rule="evenodd" clip-rule="evenodd" d="M24.58 13.2801C24.58 20.156 19.2074 25.7301 12.58 25.7301C5.9526 25.7301 0.580017 20.156 0.580017 13.2801C0.580017 6.40413 5.9526 0.830078 12.58 0.830078C19.2074 0.830078 24.58 6.40413 24.58 13.2801ZM12.9546 9.8203C11.7903 10.3333 9.46336 11.3951 5.9737 13.0057C5.40704 13.2444 5.11019 13.4779 5.08317 13.7062C5.0375 14.0921 5.49371 14.2441 6.11494 14.451C6.19944 14.4792 6.28699 14.5083 6.37675 14.5392C6.98795 14.7497 7.81011 14.9959 8.23752 15.0057C8.62523 15.0146 9.05794 14.8452 9.53568 14.4977C12.7962 12.1663 14.4792 10.9879 14.5849 10.9625C14.6594 10.9445 14.7628 10.922 14.8327 10.9879C14.9027 11.0538 14.8959 11.1786 14.8884 11.2121C14.8433 11.4162 13.0525 13.1798 12.1258 14.0924C11.8369 14.3769 11.6319 14.5788 11.59 14.6249C11.4962 14.7281 11.4006 14.8258 11.3086 14.9196C10.7408 15.4995 10.315 15.9343 11.3322 16.6444C11.821 16.9856 12.2122 17.2678 12.6024 17.5493C13.0286 17.8567 13.4537 18.1634 14.0036 18.5453C14.1438 18.6426 14.2776 18.7436 14.4079 18.8421C14.9039 19.2166 15.3495 19.5531 15.8999 19.4994C16.2198 19.4683 16.5502 19.1496 16.718 18.1994C17.1146 15.9537 17.8941 11.0879 18.0742 9.08277C18.09 8.9071 18.0701 8.68227 18.0542 8.58358C18.0383 8.48489 18.0049 8.34427 17.8838 8.24018C17.7404 8.1169 17.519 8.0909 17.42 8.09266C16.9697 8.10115 16.279 8.35559 12.9546 9.8203Z" fill="#BA8D5B"/>
</svg>
