<svg width="25" height="25" viewBox="0 0 25 25" fill="none" xmlns="http://www.w3.org/2000/svg">
<path fill-rule="evenodd" clip-rule="evenodd" d="M12.58 0.0800781C5.9526 0.0800781 0.580017 5.45266 0.580017 12.0801C0.580017 18.7075 5.9526 24.0801 12.58 24.0801C19.2074 24.0801 24.58 18.7075 24.58 12.0801C24.58 5.45266 19.2074 0.0800781 12.58 0.0800781ZM17.5808 7.95474C18.1316 8.10588 18.5653 8.55119 18.7125 9.11669C18.98 10.1416 18.98 12.2801 18.98 12.2801C18.98 12.2801 18.98 14.4185 18.7125 15.4435C18.5653 16.009 18.1316 16.4543 17.5808 16.6055C16.5827 16.8801 12.58 16.8801 12.58 16.8801C12.58 16.8801 8.57733 16.8801 7.57915 16.6055C7.02838 16.4543 6.59464 16.009 6.44744 15.4435C6.18002 14.4185 6.18002 12.2801 6.18002 12.2801C6.18002 12.2801 6.18002 10.1416 6.44744 9.11669C6.59464 8.55119 7.02838 8.10588 7.57915 7.95474C8.57733 7.68008 12.58 7.68008 12.58 7.68008C12.58 7.68008 16.5827 7.68008 17.5808 7.95474Z" fill="#BA8D5B"/>
<path d="M11.38 14.4805V10.4805L14.58 12.4806L11.38 14.4805Z" fill="#BA8D5B"/>
</svg>
